<?xml version="1.0" encoding="utf-8"?>
<!-- Generator: Adobe Illustrator 16.0.3, SVG Export Plug-In . SVG Version: 6.00 Build 0)  -->
<!DOCTYPE svg PUBLIC "-//W3C//DTD SVG 1.1//EN" "http://www.w3.org/Graphics/SVG/1.1/DTD/svg11.dtd">
<svg version="1.1" id="Layer_1" xmlns="http://www.w3.org/2000/svg" xmlns:xlink="http://www.w3.org/1999/xlink" x="0px" y="0px"
	 width="440.5px" height="435.1px" viewBox="0 0 440.5 435.1" style="enable-background:new 0 0 440.5 435.1;" xml:space="preserve"
	>
<style type="text/css">
<![CDATA[
	.st0{fill-rule:evenodd;clip-rule:evenodd;}
]]>
</style>
<path class="st0" d="M342.7,435.1c-34.3-65.9-68.4-131.2-102.8-197.2c-3.3,3-6.3,5.5-9,8.2c-22,21.9-43.9,43.8-65.9,65.7
	c-4.2,4.2-6.5,8.5-5.5,15.1c2.4,16.4,3.9,32.9,6,49.4c0.3,2.7,0,4.6-2.1,6.5c-9.9,9.6-19.7,19.4-29.9,29.5c-0.8-1.3-1.6-2.5-2.3-3.8
	c-11.2-21.2-22.3-42.5-33.6-63.7c-1.1-2.1-3.2-4.2-5.3-5.3c-20.7-11-41.4-21.9-62.1-32.8c-1.7-0.9-3.2-1.9-6.3-3.7
	c10.9-10.4,21.2-20.4,31.8-30.2c1-0.9,3.3-1.1,4.8-0.9c17.9,2.1,35.8,4.3,53.7,6.7c3.5,0.5,5.9-0.3,8.4-2.9
	c23.6-24,47.3-47.9,70.9-71.8c1.8-1.8,3.3-3.9,5.5-6.5C132.5,162.2,66.5,127.3,0,92.2c11.5-11.5,23-22.3,33.6-33.8
	c5-5.4,9.3-6.5,16.5-4.5c76.8,20.7,153.7,40.9,230.5,61.4c2.9,0.8,4.4-0.1,6.4-2C321.8,78.8,356.7,44.5,391.3,10
	c7.9-7.9,16.6-11.4,27.5-9.4c18.3,3.3,28.9,26.8,15.9,41.7c-9.3,10.6-19,20.9-29,30.9c-26.5,26.8-53.2,53.5-79.9,80.1
	c-3,3-3.5,5.5-2.5,9.5c19.9,76.3,39.5,152.6,59.4,228.9c0.7,2.8,0.4,4.5-1.7,6.5c-10.9,10.5-21.6,21.2-32.4,31.8
	C346.9,431.6,345,433.1,342.7,435.1z"/>
</svg>
