<?xml version="1.0" encoding="utf-8"?>
<!-- Generator: Adobe Illustrator 16.0.3, SVG Export Plug-In . SVG Version: 6.00 Build 0)  -->
<!DOCTYPE svg PUBLIC "-//W3C//DTD SVG 1.1//EN" "http://www.w3.org/Graphics/SVG/1.1/DTD/svg11.dtd">
<svg version="1.1" id="Layer_1" xmlns="http://www.w3.org/2000/svg" xmlns:xlink="http://www.w3.org/1999/xlink" x="0px" y="0px"
	 width="512.2px" height="434.6px" viewBox="0 0 512.2 434.6" style="enable-background:new 0 0 512.2 434.6;" xml:space="preserve"
	>
<style type="text/css">
<![CDATA[
	.st0{fill-rule:evenodd;clip-rule:evenodd;}
]]>
</style>
<g>
	<path class="st0" d="M265.4,124.5c-16.8,17.3-33.1,34-49.6,50.9c0.5,0.3,1.9,1.3,3.4,2c13.4,7.1,26.9,14,40.2,21.3
		c4.1,2.2,8.1,4.8,11.6,7.8c5.2,4.5,7.8,10.6,7.8,17.6c0,37.6,0,75.2-0.1,112.8c0,11.5-7.5,20.2-18.9,22.4
		c-12.4,2.4-25.3-6.9-26.2-19.6c-0.6-8.5-0.5-17.1-0.5-25.6c-0.1-19.4-0.2-38.7,0.1-58.1c0.1-4.8-1.3-7.5-5.7-9.9
		c-25.5-13.9-50.8-28.1-76.2-42.2c-12.7-7.1-19.3-17.7-18.4-32.5c0.5-8.3,4-15.2,9.8-21c26.8-26.9,53.5-53.8,80.4-80.5
		c16.1-16,39.8-13.4,52.3,5.8c13.1,20.1,26,40.5,38.7,60.8c2.3,3.7,4.9,5.1,9.3,5.1c18.6-0.3,37.1-0.1,55.7-0.1c2.1,0,4.2,0,6.3,0.3
		c9.4,1.5,14.8,7.7,14.5,16.4c-0.3,8-6.6,14-15.7,14.8c-1.8,0.2-3.5,0.1-5.3,0.1c-22.8,0-45.5-0.2-68.3,0.1
		c-9.6,0.2-16.3-3.7-21.3-11.6c-6.8-10.8-13.7-21.5-20.6-32.2C267.6,127.9,266.7,126.4,265.4,124.5z"/>
	<path class="st0" d="M512.2,330.5c0,57.5-46.5,104.2-103.9,104.1c-57.1-0.1-103.9-46.8-104-103.8c-0.1-57.2,46.8-104.1,104.2-104
		C465.7,226.7,512.1,273.1,512.2,330.5z M324.9,326.6c-2.8,42.1,29.2,86,81.4,87.8c43.3,1.5,82-30.8,85.8-78.2
		c3.6-45.9-32.2-86.6-79.1-89.2C364.4,244.2,326.2,282.4,324.9,326.6z"/>
	<path class="st0" d="M103.8,225.7c57.4,0,104.2,46.8,104,104.1c-0.1,57.1-46.9,103.7-104,103.8C46.6,433.7-0.1,386.8,0,329.4
		C0.1,272.2,46.6,225.7,103.8,225.7z M20,329.5c0.7,45.8,35.7,83.8,83.7,83.9c46.9,0,83.7-36.2,83.8-83.7
		c0.1-48.7-38.6-83.7-83.6-83.9C57.9,245.5,20,283.5,20,329.5z"/>
	<path class="st0" d="M305.5,0c21.4,0.1,39,17.8,39,39.3c0,21.6-18,39.6-39.6,39.2c-22.3-0.4-39.1-17.4-39.2-39.5
		C265.7,17.1,283.8-0.1,305.5,0z"/>
</g>
</svg>
