<?xml version="1.0" encoding="utf-8"?>
<!-- Generator: Adobe Illustrator 16.0.4, SVG Export Plug-In . SVG Version: 6.00 Build 0)  -->
<!DOCTYPE svg PUBLIC "-//W3C//DTD SVG 1.1//EN" "http://www.w3.org/Graphics/SVG/1.1/DTD/svg11.dtd">
<svg version="1.1" id="Layer_1" xmlns="http://www.w3.org/2000/svg" xmlns:xlink="http://www.w3.org/1999/xlink" x="0px" y="0px"
	 width="512.2px" height="434.6px" viewBox="0 0 512.2 434.6" enable-background="new 0 0 512.2 434.6" xml:space="preserve">
<g>
	<path fill="#333333" d="M265.4,124.5c-16.8,17.3-33.1,34-49.6,50.9c0.5,0.3,1.9,1.3,3.4,2c13.4,7.1,26.9,14,40.2,21.3
		c4.101,2.2,8.101,4.8,11.601,7.8c5.199,4.5,7.799,10.6,7.799,17.601c0,37.6,0,75.199-0.1,112.799c0,11.5-7.5,20.201-18.9,22.4
		c-12.399,2.4-25.299-6.9-26.199-19.6c-0.6-8.5-0.5-17.1-0.5-25.6c-0.1-19.4-0.2-38.701,0.1-58.101c0.1-4.8-1.3-7.5-5.7-9.899
		C202,232.2,176.7,218,151.3,203.9c-12.7-7.1-19.3-17.7-18.4-32.5c0.5-8.3,4-15.2,9.8-21c26.8-26.9,53.5-53.8,80.4-80.5
		c16.1-16,39.8-13.4,52.3,5.8c13.101,20.1,26,40.5,38.7,60.8c2.301,3.7,4.9,5.1,9.301,5.1c18.6-0.3,37.1-0.1,55.699-0.1
		c2.1,0,4.199,0,6.301,0.3c9.398,1.5,14.799,7.7,14.5,16.4c-0.301,8-6.602,14-15.701,14.8c-1.799,0.2-3.5,0.1-5.299,0.1
		c-22.801,0-45.5-0.2-68.301,0.1c-9.6,0.2-16.301-3.7-21.301-11.6c-6.799-10.8-13.699-21.5-20.6-32.2
		C267.6,127.9,266.7,126.4,265.4,124.5z"/>
	<path fill="#333333" d="M512.2,330.5c0,57.5-46.5,104.2-103.9,104.1c-57.1-0.1-103.899-46.8-104-103.8
		c-0.1-57.199,46.801-104.1,104.201-104C465.7,226.7,512.1,273.101,512.2,330.5z M324.901,326.601
		c-2.801,42.1,29.199,85.999,81.398,87.8c43.301,1.5,82-30.8,85.801-78.2c3.6-45.9-32.199-86.6-79.1-89.2
		C364.401,244.2,326.2,282.399,324.901,326.601z"/>
	<path fill="#333333" d="M103.8,225.7c57.4,0,104.2,46.8,104,104.1c-0.1,57.1-46.9,103.7-104,103.8C46.6,433.7-0.1,386.8,0,329.399
		C0.1,272.2,46.6,225.7,103.8,225.7z M20,329.5c0.7,45.8,35.7,83.8,83.7,83.9c46.9,0,83.7-36.2,83.8-83.7
		c0.1-48.7-38.6-83.7-83.6-83.9C57.9,245.5,20,283.5,20,329.5z"/>
	<path fill="#333333" d="M305.5,0c21.4,0.1,39,17.8,39,39.3c0,21.6-18,39.6-39.601,39.2c-22.3-0.4-39.101-17.4-39.2-39.5
		C265.7,17.1,283.799-0.1,305.5,0z"/>
</g>
</svg>
