<?xml version="1.0" encoding="utf-8"?>
<!-- Generator: Adobe Illustrator 16.0.3, SVG Export Plug-In . SVG Version: 6.00 Build 0)  -->
<!DOCTYPE svg PUBLIC "-//W3C//DTD SVG 1.1//EN" "http://www.w3.org/Graphics/SVG/1.1/DTD/svg11.dtd">
<svg version="1.1" id="Layer_1" xmlns="http://www.w3.org/2000/svg" xmlns:xlink="http://www.w3.org/1999/xlink" x="0px" y="0px"
	 width="355.1px" height="435px" viewBox="0 0 355.1 435" style="enable-background:new 0 0 355.1 435;" xml:space="preserve">
<style type="text/css">
<![CDATA[
	.st0{fill-rule:evenodd;clip-rule:evenodd;}
]]>
</style>
<path class="st0" d="M29.9,380c-10.3,0-19.8,0-29.9,0c0-2.2,0-4,0-5.7c0-58-0.3-116,0.2-174c0.1-14.4,3-28.8,4.9-43.1
	c3.8-29.6,8-59.1,11.5-88.7C19,49.4,29.1,36.5,45.8,27.8c13.8-7.2,28.4-12.2,43.5-15.7c33.5-7.8,67.3-13.9,101.9-11.5
	c37.3,2.6,74.1,8.4,109,22.9c2.3,1,4.5,2.1,6.8,3.2c19.5,9,29.7,24.1,32.2,45.7c4.7,40.7,10.4,81.2,15.6,121.9
	c0.2,1.8,0.3,3.7,0.3,5.5c0,58.5,0,117,0,175.5c0,1.5,0,2.9,0,5c-10,0-19.6,0-29.8,0c0,8.5,0.1,16.5,0,24.4c0,3.7,0.1,7.4-0.7,10.9
	c-2.7,12.7-13.8,20.5-27,19.4c-13.7-1.2-22.8-10.7-23.4-24.6c-0.2-5-0.1-10-0.1-15c0-4.8,0-9.6,0-14.7c-64.4,0-128.5,0-193.1,0
	c0,9.8,0.2,19.4,0,29c-0.3,12.2-6.9,21.1-17.8,24.4c-16.8,5.1-32.7-6.1-33.2-23.6C29.7,400.4,29.9,390.6,29.9,380z M177.3,211
	c43.3,0,86.7,0,130,0c12.9,0,18.2-5.9,16.5-18.3c-4.4-32.3-9-64.6-13.7-96.9c-2.1-14.2-7.7-18.9-22.1-19c-12.5-0.1-25,0-37.5,0
	c-60.7,0-121.3,0-182,0c-16.1,0-21.3,4.2-23.8,20c-2.8,18.1-5.2,36.3-7.7,54.4c-1.9,13.5-3.7,27-5.7,40.6
	c-1.9,13,3.1,19.2,15.9,19.4c1.3,0,2.7,0,4,0C93.3,211,135.3,211,177.3,211z M178.1,33.4c-23.3,0-46.6,0-69.9,0
	c-1.8,0-3.7-0.1-5.5,0.2c-5.4,0.8-8.7,4.9-8.8,10.4c-0.1,5.7,3,9.7,8.5,10.6c2.1,0.4,4.3,0.4,6.5,0.4c45.8,0,91.6,0,137.4,0
	c1.8,0,3.7,0,5.5-0.2c6.5-0.9,10-5.2,9.5-11.7c-0.5-6.2-4.7-9.7-12.2-9.7C225.4,33.4,201.8,33.4,178.1,33.4z M55.5,322.5
	c13.5,0,24.5-11,24.5-24.5c0-13.4-11-24.5-24.4-24.6c-13.7-0.1-24.7,11-24.6,24.8C31,311.8,41.9,322.6,55.5,322.5z M324.2,298.2
	c0.1-13.6-10.7-24.6-24.1-24.8c-13.7-0.2-24.9,11-24.9,24.6c0,13.5,11,24.4,24.5,24.5C313.3,322.5,324.1,311.8,324.2,298.2z"/>
</svg>
