<?xml version="1.0" encoding="utf-8"?>
<!-- Generator: Adobe Illustrator 16.0.3, SVG Export Plug-In . SVG Version: 6.00 Build 0)  -->
<!DOCTYPE svg PUBLIC "-//W3C//DTD SVG 1.1//EN" "http://www.w3.org/Graphics/SVG/1.1/DTD/svg11.dtd">
<svg version="1.1" xmlns="http://www.w3.org/2000/svg" xmlns:xlink="http://www.w3.org/1999/xlink" x="0px" y="0px" width="158.5px"
	 height="106.9px" viewBox="0 0 158.5 106.9" style="enable-background:new 0 0 158.5 106.9;" xml:space="preserve">
<style type="text/css">
<![CDATA[
	.st0{fill-rule:evenodd;clip-rule:evenodd;fill:#333333;}
]]>
</style>
<g id="Layer_1">
	<g>
		<path class="st0" d="M33.9,44.9c-1.6-0.6-3.2-1.3-4.8-2c-1.6,2.4-1.6,2.4-7.6-6.4c0.7,2.6,1,3.9,1.5,5.2c0.5,1.2,1.2,2.2,0.9,4.1
			c-0.7-1.2-1.5-2.3-2.3-3.7C20,48.7,18.5,54.6,17,60.5c-0.5-0.1-1-0.2-1.6-0.3c0.6-3.7,1.3-7.4,1.9-11.1c-0.5-0.1-0.9-0.2-1.4-0.3
			c-0.9,3.2-1.7,6.4-2.9,10.5c-0.1-1.8-0.3-2.8-0.2-3.8c0.1-1.1,0.4-2.3-0.1-3.6c-0.9,2.7-1.9,5.4-3.2,9.3c0-2.1,0.2-3,0-3.9
			c-0.3-1.1-0.8-2.2-1.2-3.3c-0.8,0.7-1.5,1.5-2.3,2.1C4,57.5,2,59.1,0,60.6c2.5-7.2-0.1-15.5,3.9-23.2c5.2-10.1,10.4-12,22.6-10.2
			c4,0.6,8,1.8,12,2.5c1.3,0.2,3.1-0.2,4.2-1c8.7-6.3,18.1-5.6,27.7-3.4c7.1,1.7,14.2,3.9,21.6,1.6c1.9-0.6,3.6-1.5,6.3-2.5
			c-2.3-0.9-3.7-1.4-6.7-2.5c3.7-0.2,6.1-0.3,9.7-0.5c-2.3-0.9-3.5-1.3-5.3-2c3.9-2.1,7.4-3.9,11.5-6.1c-2.3-0.3-4.5-0.6-6.8-0.9
			c0.1-3.9,1.3-4.4,8.2-3.9c3.4-2,5.6-4,8-4.5c5.7-1.1,11-3.5,17.6-2.2c4.4,0.9,10.5,5.3,14.9-1.8c-2.6,9.8,4.8,16.1,7.2,23.9
			c0.8,2.8,2.1,5.7,2.1,8.5c0,1.6-2.2,4.2-3.7,4.4c-1.6,0.2-3.6-1.7-5.2-3c-3-2.5-5.5-5.8-8.8-7.8c-2.2-1.4-5.3-0.9-6.6,2.2
			c-2.9,6.8-7.6,12.7-8.2,20.6c-0.3,3.7-2.7,7.2-4.7,12.1c1.5,1.8,3.9,4.7,6.5,7.4c4.3,4.6,4.5,6.6,0.5,11.4
			c-8.1,9.8-9,10.6-17.5,15c0-2,0-3.9,0-6.4c-9,2.3-17.7,4.5-26.4,6.7c-0.1-6.8,0.3-6.2,6.8-6.7c5.9-0.5,11.5-3,17.2-4.5
			c-1.6-5.7-2.7-10.7-4.6-15.4c-0.7-1.7-3.5-3.5-5.5-3.7c-9.9-1.1-20-0.9-28.8-6.7c-2.6-1.7-4.1-0.1-4.9,2.2
			C62.8,65.4,61,70.6,60,75.9c-0.4,2,1,4.7,2.3,6.6c3.9,5.9,8.3,11.5,12.2,17.4c1.2,1.9,1.4,4.4,1.4,6.9c-4.1-1.1-8.3-1.8-7-7.5
			c0.2-0.7,0-1.8-0.5-2.3c-2.8-3.2-5.7-6.4-8.3-9.3c0,5.8,0,11.2,0,16.7c-5.5,0.4-6.1-3.1-5.3-5.8c1-3.4,0-5.7-1.8-8.1
			c-3.4-4.7-6.5-9.7-10.3-14c-2.7-3.2-2.6-5.4,0.5-7.9c0.5-0.4,1-0.9,1.4-1.4c5.3-5.5,5.2-6.7-0.5-11.8c-2.1-1.9-3.6-4.3-5.6-6.3
			c-1.5-1.6-3.2-2.9-4.9-4.3c0.7-0.3,1.8-0.5,1.9-1c0.5-2.9,0.8-5.9,1.2-8.8c-0.3-0.1-0.6-0.2-0.9-0.3c-0.5,1.8-1.1,3.6-1.8,5.8
			c-0.7-1.4-1.3-2.5-1.9-3.6C28.4,40.7,32.8,42.4,33.9,44.9z M114.9,88.5c3.9-4.3,6.6-7.1,9.2-10.1c2-2.3,1.9-4.7-0.8-6.2
			c-2.9-1.6-6.1-2.8-9.7-4.3C114,74.9,114.4,81.2,114.9,88.5z"/>
	</g>
</g>
<g id="Layer_2">
</g>
<g id="Layer_3">
</g>
</svg>
